<svg width="27" height="24" viewBox="0 0 27 24" fill="none" xmlns="http://www.w3.org/2000/svg">
<path d="M25.9089 5.16328L23.6425 2.89922C23.4666 2.72331 23.228 2.62448 22.9792 2.62448C22.7305 2.62448 22.4919 2.72331 22.316 2.89922C22.1401 3.07513 22.0412 3.31372 22.0412 3.5625C22.0412 3.81128 22.1401 4.04987 22.316 4.22578L24.58 6.49219C24.7549 6.66729 24.8535 6.90446 24.8542 7.15195V16.6875C24.8542 16.9361 24.7555 17.1746 24.5797 17.3504C24.4038 17.5262 24.1654 17.625 23.9167 17.625C23.6681 17.625 23.4296 17.5262 23.2538 17.3504C23.078 17.1746 22.9792 16.9361 22.9792 16.6875V12C22.9792 11.2541 22.6829 10.5387 22.1555 10.0113C21.628 9.48382 20.9127 9.1875 20.1667 9.1875H18.2917V3.5625C18.2917 2.81658 17.9954 2.10121 17.468 1.57376C16.9405 1.04632 16.2252 0.75 15.4792 0.75H6.10425C5.35833 0.75 4.64296 1.04632 4.11551 1.57376C3.58806 2.10121 3.29175 2.81658 3.29175 3.5625V21.375H1.41675C1.16811 21.375 0.929651 21.4738 0.753835 21.6496C0.57802 21.8254 0.479248 22.0639 0.479248 22.3125C0.479248 22.5611 0.57802 22.7996 0.753835 22.9754C0.929651 23.1512 1.16811 23.25 1.41675 23.25H20.1667C20.4154 23.25 20.6538 23.1512 20.8297 22.9754C21.0055 22.7996 21.1042 22.5611 21.1042 22.3125C21.1042 22.0639 21.0055 21.8254 20.8297 21.6496C20.6538 21.4738 20.4154 21.375 20.1667 21.375H18.2917V11.0625H20.1667C20.4154 11.0625 20.6538 11.1613 20.8297 11.3371C21.0055 11.5129 21.1042 11.7514 21.1042 12V16.6875C21.1042 17.4334 21.4006 18.1488 21.928 18.6762C22.4555 19.2037 23.1708 19.5 23.9167 19.5C24.6627 19.5 25.378 19.2037 25.9055 18.6762C26.4329 18.1488 26.7292 17.4334 26.7292 16.6875V7.15195C26.7307 6.78272 26.6589 6.41687 26.5181 6.07553C26.3773 5.7342 26.1703 5.42414 25.9089 5.16328ZM5.16675 21.375V3.5625C5.16675 3.31386 5.26552 3.0754 5.44134 2.89959C5.61715 2.72377 5.85561 2.625 6.10425 2.625H15.4792C15.7279 2.625 15.9663 2.72377 16.1422 2.89959C16.318 3.0754 16.4167 3.31386 16.4167 3.5625V21.375H5.16675ZM14.5417 10.125C14.5417 10.3736 14.443 10.6121 14.2672 10.7879C14.0913 10.9637 13.8529 11.0625 13.6042 11.0625H7.97925C7.73061 11.0625 7.49215 10.9637 7.31634 10.7879C7.14052 10.6121 7.04175 10.3736 7.04175 10.125C7.04175 9.87636 7.14052 9.6379 7.31634 9.46209C7.49215 9.28627 7.73061 9.1875 7.97925 9.1875H13.6042C13.8529 9.1875 14.0913 9.28627 14.2672 9.46209C14.443 9.6379 14.5417 9.87636 14.5417 10.125Z" fill="#0000FF"/>
</svg>
