<svg width="21" height="21" viewBox="0 0 21 21" fill="none" xmlns="http://www.w3.org/2000/svg">
<path d="M11.4851 0.914062C12.5632 0.916938 13.1104 0.922688 13.5829 0.936104L13.7688 0.942812C13.9834 0.950479 14.1952 0.960062 14.4511 0.971562C15.4708 1.01948 16.1665 1.18048 16.777 1.41719C17.4095 1.6606 17.9423 1.99027 18.4752 2.52215C18.9625 3.00121 19.3395 3.58071 19.5801 4.22031C19.8168 4.83077 19.9778 5.52652 20.0257 6.54715C20.0372 6.80206 20.0468 7.01385 20.0545 7.22948L20.0602 7.4154C20.0746 7.8869 20.0804 8.4341 20.0823 9.51223L20.0832 10.2271V11.4826C20.0856 12.1816 20.0782 12.8806 20.0612 13.5794L20.0554 13.7653C20.0478 13.9809 20.0382 14.1927 20.0267 14.4476C19.9788 15.4683 19.8159 16.1631 19.5801 16.7745C19.3402 17.4144 18.9631 17.9941 18.4752 18.4726C17.9959 18.9598 17.4165 19.3368 16.777 19.5776C16.1665 19.8143 15.4708 19.9753 14.4511 20.0232C14.2237 20.0339 13.9963 20.0435 13.7688 20.052L13.5829 20.0577C13.1104 20.0711 12.5632 20.0779 11.4851 20.0798L10.7702 20.0807H9.51569C8.81636 20.0831 8.11703 20.0758 7.4179 20.0587L7.23198 20.0529C7.00449 20.0443 6.77704 20.0344 6.54965 20.0232C5.52998 19.9753 4.83423 19.8143 4.22282 19.5776C3.58329 19.3374 3.00403 18.9603 2.52561 18.4726C2.03786 17.9938 1.66045 17.4142 1.41969 16.7745C1.18299 16.164 1.02199 15.4683 0.974069 14.4476C0.963392 14.2202 0.953808 13.9928 0.945319 13.7653L0.940527 13.5794C0.922867 12.8806 0.91488 12.1816 0.916569 11.4826V9.51223C0.913894 8.81322 0.920922 8.11421 0.937652 7.4154L0.94436 7.22948C0.952027 7.01385 0.96161 6.80206 0.97311 6.54715C1.02103 5.52652 1.18203 4.83173 1.41874 4.22031C1.65939 3.58005 2.03755 3.00038 2.52657 2.52215C3.00486 2.03481 3.58375 1.65772 4.22282 1.41719C4.83423 1.18048 5.52903 1.01948 6.54965 0.971562C6.80457 0.960062 7.01732 0.950479 7.23198 0.942812L7.4179 0.937062C8.11671 0.920036 8.81572 0.912688 9.51473 0.915021L11.4851 0.914062ZM10.4999 5.70573C9.22907 5.70573 8.01029 6.21056 7.11168 7.10918C6.21307 8.00779 5.70823 9.22657 5.70823 10.4974C5.70823 11.7682 6.21307 12.987 7.11168 13.8856C8.01029 14.7842 9.22907 15.2891 10.4999 15.2891C11.7707 15.2891 12.9895 14.7842 13.8881 13.8856C14.7867 12.987 15.2916 11.7682 15.2916 10.4974C15.2916 9.22657 14.7867 8.00779 13.8881 7.10918C12.9895 6.21056 11.7707 5.70573 10.4999 5.70573ZM10.4999 7.6224C10.8775 7.62233 11.2513 7.69663 11.6002 7.84106C11.949 7.98548 12.266 8.1972 12.533 8.46413C12.8 8.73105 13.0118 9.04795 13.1564 9.39674C13.3009 9.74553 13.3753 10.1194 13.3754 10.4969C13.3754 10.8745 13.3011 11.2483 13.1567 11.5972C13.0123 11.946 12.8006 12.263 12.5337 12.53C12.2667 12.797 11.9498 13.0088 11.601 13.1534C11.2523 13.2979 10.8784 13.3723 10.5009 13.3724C9.73836 13.3724 9.00709 13.0695 8.46793 12.5303C7.92876 11.9912 7.62586 11.2599 7.62586 10.4974C7.62586 9.7349 7.92876 9.00363 8.46793 8.46446C9.00709 7.9253 9.73836 7.6224 10.5009 7.6224M15.5321 4.26823C15.2144 4.26823 14.9097 4.39444 14.6851 4.61909C14.4604 4.84374 14.3342 5.14844 14.3342 5.46615C14.3342 5.78385 14.4604 6.08855 14.6851 6.3132C14.9097 6.53785 15.2144 6.66406 15.5321 6.66406C15.8498 6.66406 16.1545 6.53785 16.3792 6.3132C16.6038 6.08855 16.73 5.78385 16.73 5.46615C16.73 5.14844 16.6038 4.84374 16.3792 4.61909C16.1545 4.39444 15.8498 4.26823 15.5321 4.26823Z" fill="#3D3D3D"/>
</svg>
