<svg width="22" height="28" viewBox="0 0 22 28" fill="none" xmlns="http://www.w3.org/2000/svg">
<path d="M21.5832 26.1877C21.5832 26.4364 21.4844 26.6748 21.3086 26.8507C21.1328 27.0265 20.8944 27.1252 20.6457 27.1252H8.45822C8.20958 27.1252 7.97112 27.0265 7.79531 26.8507C7.61949 26.6748 7.52072 26.4364 7.52072 26.1877C7.52072 25.9391 7.61949 25.7007 7.79531 25.5248C7.97112 25.349 8.20958 25.2502 8.45822 25.2502H20.6457C20.8944 25.2502 21.1328 25.349 21.3086 25.5248C21.4844 25.7007 21.5832 25.9391 21.5832 26.1877ZM21.5832 17.7502V21.5002C21.5832 21.9975 21.3857 22.4744 21.034 22.8261C20.6824 23.1777 20.2055 23.3752 19.7082 23.3752H8.70548C8.35683 23.3763 8.01483 23.2798 7.71824 23.0965C7.42165 22.9132 7.18232 22.6505 7.02736 22.3381L0.217594 8.74439C0.0881236 8.48363 0.020752 8.19645 0.020752 7.90532C0.020752 7.6142 0.0881236 7.32702 0.217594 7.06626L2.80978 1.91001C3.0298 1.47093 3.41332 1.1357 3.87788 0.976389C4.34245 0.817078 4.85098 0.846402 5.29416 1.05806L9.2422 2.72447L9.29728 2.75025C9.74176 2.97275 10.0797 3.36264 10.2368 3.83422C10.3939 4.30579 10.3574 4.82046 10.1352 5.26509C10.1316 5.27402 10.1273 5.28264 10.1223 5.29087L8.45822 8.37525L12.1824 15.8752H19.7082C20.2055 15.8752 20.6824 16.0728 21.034 16.4244C21.3857 16.7761 21.5832 17.253 21.5832 17.7502ZM19.7082 17.7502H12.1813C11.8327 17.7514 11.4909 17.6548 11.1945 17.4715C10.8981 17.2882 10.659 17.0255 10.5043 16.7131L6.77892 9.21314C6.64975 8.95292 6.58254 8.66634 6.58254 8.37583C6.58254 8.08532 6.64975 7.79875 6.77892 7.53853L6.79298 7.51275L8.45822 4.42837L4.54064 2.77486C4.52186 2.76764 4.50347 2.75942 4.48556 2.75025L1.89572 7.9065L8.70431 21.5002H19.7082V17.7502Z" fill="#0000FF"/>
</svg>
