<svg width="23" height="24" viewBox="0 0 23 24" fill="none" xmlns="http://www.w3.org/2000/svg">
<path d="M22.1875 4.49811C22.1872 3.79682 21.9902 3.10967 21.6189 2.51472C21.2476 1.91976 20.7169 1.44084 20.0871 1.13233C19.4574 0.82383 18.7537 0.698113 18.056 0.769458C17.3584 0.840803 16.6947 1.10635 16.1404 1.53595C15.5861 1.96554 15.1633 2.54196 14.9201 3.19975C14.677 3.85754 14.6231 4.57034 14.7647 5.25719C14.9064 5.94404 15.2377 6.57742 15.7212 7.0854C16.2047 7.59338 16.821 7.9556 17.5 8.13092V10.1231C17.5 10.3718 17.4012 10.6102 17.2254 10.786C17.0496 10.9618 16.8111 11.0606 16.5625 11.0606H6.25001C5.93056 11.0605 5.61346 11.1152 5.31251 11.2223V8.13092C6.19625 7.90274 6.96644 7.36008 7.4787 6.60467C7.99096 5.84925 8.21013 4.93294 8.09512 4.02749C7.98011 3.12204 7.53883 2.28961 6.85398 1.68625C6.16913 1.08288 5.28773 0.750002 4.37501 0.750002C3.46228 0.750002 2.58089 1.08288 1.89604 1.68625C1.21119 2.28961 0.769905 3.12204 0.654898 4.02749C0.53989 4.93294 0.759058 5.84925 1.27132 6.60467C1.78358 7.36008 2.55377 7.90274 3.43751 8.13092V15.8653C2.55377 16.0935 1.78358 16.6361 1.27132 17.3916C0.759058 18.147 0.53989 19.0633 0.654898 19.9687C0.769905 20.8742 1.21119 21.7066 1.89604 22.31C2.58089 22.9133 3.46228 23.2462 4.37501 23.2462C5.28773 23.2462 6.16913 22.9133 6.85398 22.31C7.53883 21.7066 7.98011 20.8742 8.09512 19.9687C8.21013 19.0633 7.99096 18.147 7.4787 17.3916C6.96644 16.6361 6.19625 16.0935 5.31251 15.8653V13.8731C5.31251 13.6245 5.41128 13.386 5.5871 13.2102C5.76291 13.0344 6.00137 12.9356 6.25001 12.9356H16.5625C17.3084 12.9356 18.0238 12.6393 18.5512 12.1118C19.0787 11.5844 19.375 10.869 19.375 10.1231V8.13092C20.1797 7.92191 20.8923 7.4519 21.4013 6.79451C21.9102 6.13712 22.1867 5.32949 22.1875 4.49811ZM2.50001 4.49811C2.50001 4.12727 2.60998 3.76476 2.816 3.45642C3.02203 3.14808 3.31487 2.90775 3.65748 2.76584C4.00009 2.62392 4.37709 2.58679 4.7408 2.65914C5.10452 2.73149 5.43861 2.91006 5.70083 3.17229C5.96306 3.43451 6.14163 3.7686 6.21398 4.13232C6.28633 4.49603 6.2492 4.87303 6.10728 5.21564C5.96537 5.55825 5.72505 5.85109 5.4167 6.05712C5.10836 6.26314 4.74585 6.37311 4.37501 6.37311C3.87773 6.37311 3.40081 6.17557 3.04918 5.82394C2.69755 5.47231 2.50001 4.99539 2.50001 4.49811ZM6.25001 19.4981C6.25001 19.869 6.14004 20.2315 5.93401 20.5398C5.72799 20.8481 5.43515 21.0885 5.09254 21.2304C4.74993 21.3723 4.37293 21.4094 4.00921 21.3371C3.6455 21.2647 3.31141 21.0862 3.04918 20.8239C2.78696 20.5617 2.60838 20.2276 2.53604 19.8639C2.46369 19.5002 2.50082 19.1232 2.64273 18.7806C2.78465 18.438 3.02497 18.1451 3.33331 17.9391C3.64166 17.7331 4.00417 17.6231 4.37501 17.6231C4.87229 17.6231 5.3492 17.8207 5.70083 18.1723C6.05246 18.5239 6.25001 19.0008 6.25001 19.4981ZM18.4375 6.37311C18.0667 6.37311 17.7042 6.26314 17.3958 6.05712C17.0875 5.85109 16.8471 5.55825 16.7052 5.21564C16.5633 4.87303 16.5262 4.49603 16.5985 4.13232C16.6709 3.7686 16.8495 3.43451 17.1117 3.17229C17.3739 2.91006 17.708 2.73149 18.0717 2.65914C18.4354 2.58679 18.8124 2.62392 19.155 2.76584C19.4977 2.90775 19.7905 3.14808 19.9965 3.45642C20.2025 3.76476 20.3125 4.12727 20.3125 4.49811C20.3125 4.99539 20.115 5.47231 19.7633 5.82394C19.4117 6.17557 18.9348 6.37311 18.4375 6.37311Z" fill="#0000FF"/>
</svg>
