<svg width="19" height="17" viewBox="0 0 19 17" fill="none" xmlns="http://www.w3.org/2000/svg">
<path d="M18.8438 2.70987C18.1565 3.00636 17.4085 3.21974 16.6381 3.30284C17.438 2.82765 18.037 2.07692 18.3227 1.19151C17.5721 1.63801 16.7499 1.95111 15.8924 2.1169C15.5341 1.73378 15.1006 1.42857 14.6191 1.22028C14.1376 1.01199 13.6184 0.9051 13.0938 0.906259C10.9712 0.906259 9.26421 2.62677 9.26421 4.7381C9.26421 5.03458 9.30015 5.33106 9.35855 5.61632C6.18032 5.45011 3.34575 3.93175 1.46128 1.60704C1.11791 2.19353 0.93797 2.86132 0.940185 3.54093C0.940185 4.87061 1.61626 6.04308 2.64722 6.73263C2.03966 6.7087 1.44633 6.54171 0.915479 6.24522V6.29239C0.915479 8.1544 2.23169 9.69747 3.98589 10.0524C3.65652 10.1379 3.31769 10.1817 2.97739 10.1826C2.72808 10.1826 2.49224 10.1579 2.25415 10.1242C2.73931 11.6426 4.1521 12.7454 5.83442 12.7814C4.51821 13.8123 2.86958 14.4188 1.07944 14.4188C0.758252 14.4188 0.461768 14.4075 0.154053 14.3716C1.8521 15.4609 3.86685 16.0899 6.03657 16.0899C13.0803 16.0899 16.9346 10.2545 16.9346 5.18956C16.9346 5.02335 16.9346 4.85714 16.9234 4.69093C17.6691 4.14513 18.3227 3.46905 18.8438 2.70987Z" fill="#3D3D3D"/>
</svg>
