<svg width="30" height="23" viewBox="0 0 30 23" fill="none" xmlns="http://www.w3.org/2000/svg">
<path d="M28.125 9.1875H26.8594L23.6039 1.86328C23.4566 1.53191 23.2163 1.25037 22.9122 1.05277C22.6081 0.855175 22.2533 0.750004 21.8906 0.75H8.10937C7.74673 0.750004 7.39186 0.855175 7.08777 1.05277C6.78368 1.25037 6.54342 1.53191 6.39609 1.86328L3.14062 9.1875H1.875C1.62636 9.1875 1.3879 9.28627 1.21209 9.46209C1.03627 9.6379 0.9375 9.87636 0.9375 10.125C0.9375 10.3736 1.03627 10.6121 1.21209 10.7879C1.3879 10.9637 1.62636 11.0625 1.875 11.0625H2.8125V20.4375C2.8125 20.9348 3.01004 21.4117 3.36167 21.7633C3.71331 22.115 4.19022 22.3125 4.6875 22.3125H7.5C7.99728 22.3125 8.47419 22.115 8.82582 21.7633C9.17746 21.4117 9.375 20.9348 9.375 20.4375V18.5625H20.625V20.4375C20.625 20.9348 20.8225 21.4117 21.1742 21.7633C21.5258 22.115 22.0027 22.3125 22.5 22.3125H25.3125C25.8098 22.3125 26.2867 22.115 26.6383 21.7633C26.99 21.4117 27.1875 20.9348 27.1875 20.4375V11.0625H28.125C28.3736 11.0625 28.6121 10.9637 28.7879 10.7879C28.9637 10.6121 29.0625 10.3736 29.0625 10.125C29.0625 9.87636 28.9637 9.6379 28.7879 9.46209C28.6121 9.28627 28.3736 9.1875 28.125 9.1875ZM8.10937 2.625H21.8906L24.8074 9.1875H5.19258L8.10937 2.625ZM25.3125 20.4375H22.5V17.625C22.5 17.3764 22.4012 17.1379 22.2254 16.9621C22.0496 16.7863 21.8111 16.6875 21.5625 16.6875H8.4375C8.18886 16.6875 7.9504 16.7863 7.77459 16.9621C7.59877 17.1379 7.5 17.3764 7.5 17.625V20.4375H4.6875V11.0625H25.3125V20.4375Z" fill="#0000FF"/>
</svg>
