<svg width="21" height="17" viewBox="0 0 21 17" fill="none" xmlns="http://www.w3.org/2000/svg">
<path fill-rule="evenodd" clip-rule="evenodd" d="M10.5001 0.835938C11.3195 0.835938 12.1599 0.857021 12.9745 0.891521L13.9367 0.937521L14.8576 0.992146L15.7201 1.0506L16.5079 1.11194C17.3628 1.17737 18.1672 1.54218 18.7796 2.14218C19.3921 2.74219 19.7733 3.53895 19.8563 4.39231L19.8946 4.7996L19.9665 5.67169C20.0336 6.5754 20.0834 7.56056 20.0834 8.5026C20.0834 9.44465 20.0336 10.4298 19.9665 11.3335L19.8946 12.2056C19.8822 12.3455 19.8697 12.4806 19.8563 12.6129C19.7733 13.4664 19.3919 14.2633 18.7793 14.8633C18.1666 15.4633 17.362 15.8281 16.5069 15.8933L15.7211 15.9536L14.8586 16.0131L13.9367 16.0677L12.9745 16.1137C12.1502 16.1495 11.3252 16.168 10.5001 16.1693C9.67498 16.168 8.84999 16.1495 8.02566 16.1137L7.0635 16.0677L6.14254 16.0131L5.28004 15.9536L4.49229 15.8933C3.63741 15.8278 2.83299 15.463 2.22053 14.863C1.60808 14.263 1.22684 13.4663 1.14387 12.6129L1.10554 12.2056L1.03366 11.3335C0.960388 10.3916 0.92139 9.44735 0.916748 8.5026C0.916748 7.56056 0.966581 6.5754 1.03366 5.67169L1.10554 4.7996C1.118 4.65969 1.13046 4.52456 1.14387 4.39231C1.22681 3.53911 1.60791 2.74246 2.22017 2.14247C2.83242 1.54249 3.63662 1.17759 4.49133 1.11194L5.27812 1.0506L6.14062 0.992146L7.06254 0.937521L8.02471 0.891521C8.84935 0.855711 9.67466 0.837179 10.5001 0.835938ZM8.58341 6.17865V10.8266C8.58341 11.2693 9.06258 11.5453 9.44591 11.3249L13.4709 9.00094C13.5585 8.95052 13.6312 8.87791 13.6818 8.79042C13.7324 8.70294 13.7591 8.60366 13.7591 8.5026C13.7591 8.40155 13.7324 8.30227 13.6818 8.21478C13.6312 8.1273 13.5585 8.05469 13.4709 8.00427L9.44591 5.68127C9.35848 5.63079 9.25929 5.60422 9.15832 5.60424C9.05736 5.60425 8.95818 5.63085 8.87075 5.68136C8.78333 5.73187 8.71075 5.80451 8.66031 5.89198C8.60987 5.97944 8.58335 6.07864 8.58341 6.1796V6.17865Z" fill="#3D3D3D"/>
</svg>
